<?xml version="1.0" standalone="no"?>
<!DOCTYPE svg PUBLIC "-//W3C//DTD SVG 20010904//EN"
 "http://www.w3.org/TR/2001/REC-SVG-20010904/DTD/svg10.dtd">
<svg version="1.0" xmlns="http://www.w3.org/2000/svg"
 width="1000.000000pt" height="1000.000000pt" viewBox="0 0 1000.000000 1000.000000"
 preserveAspectRatio="xMidYMid meet">
<metadata>
Created by potrace 1.14, written by Peter Selinger 2001-2017
</metadata>
<g transform="translate(0.000000,1000.000000) scale(0.100000,-0.100000)"
fill="#000000" stroke="none">
<path d="M4555 9984 c-1024 -92 -1974 -487 -2775 -1155 -160 -133 -476 -449
-609 -609 -603 -723 -981 -1561 -1120 -2480 -68 -454 -68 -1026 0 -1480 139
-919 517 -1757 1120 -2480 133 -160 449 -476 609 -609 723 -603 1561 -981
2480 -1120 454 -68 1026 -68 1480 0 919 139 1757 517 2480 1120 160 133 476
449 609 609 603 723 981 1561 1120 2480 68 454 68 1026 0 1480 -139 919 -517
1757 -1120 2480 -133 160 -449 476 -609 609 -807 673 -1755 1065 -2790 1156
-215 18 -664 18 -875 -1z m575 -3124 c168 -13 300 -40 455 -91 560 -187 997
-624 1184 -1184 326 -979 -204 -2038 -1184 -2364 -979 -326 -2038 204 -2364
1184 -326 979 204 2038 1184 2364 181 60 330 87 565 100 14 0 86 -4 160 -9z"/>
</g>
</svg>
